<?xml version="1.0" standalone="no"?><!DOCTYPE svg PUBLIC "-//W3C//DTD SVG 1.1//EN" "http://www.w3.org/Graphics/SVG/1.1/DTD/svg11.dtd"><svg t="1694632794403" class="icon" viewBox="0 0 1024 1024" version="1.1" xmlns="http://www.w3.org/2000/svg" p-id="4057" xmlns:xlink="http://www.w3.org/1999/xlink" width="200" height="200"><path d="M511.9 959.7c-123.8 0-230.4-43.9-317.1-130.6C106.9 741.2 64.2 637.5 64.2 512c0-126 42.7-229.7 130.6-317.1 67.6-71 156.5-115.1 257.4-127.6 23.8-1.9 39.2-2.6 54.7-2.6 15.6 0 32 0.7 58.6 2.7h1c7.7 0 64.2 8.6 112 25.9 7.7 2.8 13.8 8.4 17.5 16.2 2.2 5 4.4 13.2 1.4 22.2l-0.7 2.1v1c-2.3 7-8 12.8-15.8 16.6-4.1 2-8.5 3-13.1 3-3.7 0-7.3-0.6-10.8-1.9-39.6-14.6-87.1-21.6-94.8-22.3-21.6-1.5-38-2.4-53.8-2.4-15.9 0-30.6 0.9-49.3 2.4l-0.5 0.1c-85.7 10.2-161.4 47.7-219 108.5-75.8 75.4-112.8 165-112.8 273.2 0 109.3 37.3 198.3 114.2 271.9 74.9 75.4 164.1 112.2 272.5 112.2 105 0 194.5-36.9 273.5-112.7l0.4-0.4c74.8-78.5 111.2-167.5 111.2-272 0-41.6-7.3-85.2-21.7-129.6l-0.3-1-0.5-0.9c-3-5.9-5.4-11.9-7.2-16.4-3-7.4-4.9-12.1-7.4-15.5l-0.6-0.8-0.2-0.2-0.3-1-1-1.5c-2-3-21-29.6-65.6-30.2h-0.8c-43.9 0-57.1 21.5-61.5 28.6l-2 3.3v0.7L572.1 678.3c-15.2 33.6-35.4 51-60.1 51.8-25.3 0-46.8-16.5-65.1-50.4l-0.9-1.8-0.2-0.2-156.3-336.4c-3.4-7.6-3.8-16.1-0.9-23.9 2.9-7.8 8.6-14 16.2-17.5 4.4-2.2 8.8-3.2 13.4-3.2 12.1 0 23.1 7.1 28.1 18l162.3 350.2L675 314l0.2-0.4c0.5-1.3 1.4-2.7 2.6-4.3l0.4-0.5 0.3-0.5c24.3-36.8 62.9-55.9 114.7-56.6 67.8 0.9 107.6 40.6 120.4 63.8l0.3 0.6c5.1 8.3 8.4 16.3 11.9 24.8l1 2.5 0.3 0.3c1.4 3.8 3.2 7.8 5.3 12 0.6 1.1 1.4 2.8 1.5 3.4l0.1 0.5 0.2 0.5c16.8 50.3 25.5 101.4 26 152 0 119.5-43.8 226-130.1 316.5-91.1 87-198.1 131.1-318.2 131.1z" fill="#10C090" p-id="4058"></path></svg>